<mxfile host="app.diagrams.net" modified="2021-11-29T22:44:35.708Z" agent="5.0 (Windows NT 10.0; Win64; x64) AppleWebKit/537.36 (KHTML, like Gecko) Chrome/96.0.4664.45 Safari/537.36" etag="EwM79z6Fb_igKdjrh8ve" version="15.8.7" type="github">
  <diagram id="C5RBs43oDa-KdzZeNtuy" name="Page-1">
    <mxGraphModel dx="862" dy="450" grid="1" gridSize="10" guides="1" tooltips="1" connect="1" arrows="1" fold="1" page="1" pageScale="1" pageWidth="827" pageHeight="1169" background="#114B5F" math="0" shadow="0">
      <root>
        <mxCell id="WIyWlLk6GJQsqaUBKTNV-0" />
        <mxCell id="WIyWlLk6GJQsqaUBKTNV-1" parent="WIyWlLk6GJQsqaUBKTNV-0" />
        <mxCell id="WIyWlLk6GJQsqaUBKTNV-2" value="" style="rounded=0;html=1;jettySize=auto;orthogonalLoop=1;fontSize=11;endArrow=block;endFill=0;endSize=8;strokeWidth=1;shadow=0;labelBackgroundColor=none;edgeStyle=orthogonalEdgeStyle;strokeColor=#028090;fontColor=#E4FDE1;" parent="WIyWlLk6GJQsqaUBKTNV-1" target="Y_k0PhM8CStEdoMZygF2-1" edge="1">
          <mxGeometry relative="1" as="geometry">
            <mxPoint x="414" y="100" as="sourcePoint" />
            <mxPoint x="414" y="150" as="targetPoint" />
          </mxGeometry>
        </mxCell>
        <mxCell id="Y_k0PhM8CStEdoMZygF2-0" value="Início" style="ellipse;whiteSpace=wrap;html=1;fillColor=#F45B69;strokeColor=#028090;fontColor=#E4FDE1;" vertex="1" parent="WIyWlLk6GJQsqaUBKTNV-1">
          <mxGeometry x="354" y="20" width="120" height="80" as="geometry" />
        </mxCell>
        <mxCell id="Y_k0PhM8CStEdoMZygF2-1" value="Data posterior ao evento?" style="rhombus;whiteSpace=wrap;html=1;fillColor=#F45B69;strokeColor=#028090;fontColor=#E4FDE1;" vertex="1" parent="WIyWlLk6GJQsqaUBKTNV-1">
          <mxGeometry x="336" y="140" width="156" height="150" as="geometry" />
        </mxCell>
        <mxCell id="Y_k0PhM8CStEdoMZygF2-4" value="" style="endArrow=classic;html=1;rounded=0;labelBackgroundColor=#114B5F;strokeColor=#028090;fontColor=#E4FDE1;" edge="1" parent="WIyWlLk6GJQsqaUBKTNV-1" source="Y_k0PhM8CStEdoMZygF2-1">
          <mxGeometry width="50" height="50" relative="1" as="geometry">
            <mxPoint x="265.28932188134524" y="265" as="sourcePoint" />
            <mxPoint x="265.28932188134524" y="215" as="targetPoint" />
          </mxGeometry>
        </mxCell>
        <mxCell id="Y_k0PhM8CStEdoMZygF2-6" value="Sim" style="edgeLabel;html=1;align=center;verticalAlign=middle;resizable=0;points=[];labelBackgroundColor=#114B5F;fontColor=#E4FDE1;" vertex="1" connectable="0" parent="Y_k0PhM8CStEdoMZygF2-4">
          <mxGeometry x="-0.4909" y="2" relative="1" as="geometry">
            <mxPoint x="-8" y="-17" as="offset" />
          </mxGeometry>
        </mxCell>
        <mxCell id="Y_k0PhM8CStEdoMZygF2-5" value="" style="endArrow=classic;html=1;rounded=0;labelBackgroundColor=#114B5F;strokeColor=#028090;fontColor=#E4FDE1;" edge="1" parent="WIyWlLk6GJQsqaUBKTNV-1" source="Y_k0PhM8CStEdoMZygF2-1">
          <mxGeometry width="50" height="50" relative="1" as="geometry">
            <mxPoint x="492" y="265" as="sourcePoint" />
            <mxPoint x="562.7106781186548" y="215" as="targetPoint" />
          </mxGeometry>
        </mxCell>
        <mxCell id="Y_k0PhM8CStEdoMZygF2-7" value="Não" style="text;html=1;align=center;verticalAlign=middle;resizable=0;points=[];autosize=1;strokeColor=none;fillColor=none;fontColor=#E4FDE1;" vertex="1" parent="WIyWlLk6GJQsqaUBKTNV-1">
          <mxGeometry x="500" y="190" width="40" height="20" as="geometry" />
        </mxCell>
        <mxCell id="Y_k0PhM8CStEdoMZygF2-8" value="Prosseguir com o cadastro." style="shape=display;whiteSpace=wrap;html=1;fillColor=#F45B69;strokeColor=#028090;fontColor=#E4FDE1;" vertex="1" parent="WIyWlLk6GJQsqaUBKTNV-1">
          <mxGeometry x="160" y="182.5" width="110" height="65" as="geometry" />
        </mxCell>
        <mxCell id="Y_k0PhM8CStEdoMZygF2-9" value="O cadastro não será permitido por data inválida." style="shape=display;whiteSpace=wrap;html=1;fillColor=#F45B69;strokeColor=#028090;fontColor=#E4FDE1;" vertex="1" parent="WIyWlLk6GJQsqaUBKTNV-1">
          <mxGeometry x="560" y="185" width="110" height="62.5" as="geometry" />
        </mxCell>
        <mxCell id="Y_k0PhM8CStEdoMZygF2-13" value="" style="endArrow=classic;html=1;rounded=0;labelBackgroundColor=#114B5F;strokeColor=#028090;fontColor=#E4FDE1;" edge="1" parent="WIyWlLk6GJQsqaUBKTNV-1" source="Y_k0PhM8CStEdoMZygF2-8">
          <mxGeometry width="50" height="50" relative="1" as="geometry">
            <mxPoint x="215" y="297.5" as="sourcePoint" />
            <mxPoint x="215" y="318.21067811865476" as="targetPoint" />
          </mxGeometry>
        </mxCell>
        <mxCell id="Y_k0PhM8CStEdoMZygF2-14" value="Idade do usuário." style="shape=manualInput;whiteSpace=wrap;html=1;labelBackgroundColor=#114B5F;fillColor=#F45B69;strokeColor=#028090;fontColor=#E4FDE1;" vertex="1" parent="WIyWlLk6GJQsqaUBKTNV-1">
          <mxGeometry x="157.5" y="310" width="115" height="90" as="geometry" />
        </mxCell>
        <mxCell id="Y_k0PhM8CStEdoMZygF2-15" value="" style="endArrow=classic;html=1;rounded=0;labelBackgroundColor=#114B5F;strokeColor=#028090;fontColor=#E4FDE1;" edge="1" parent="WIyWlLk6GJQsqaUBKTNV-1" source="Y_k0PhM8CStEdoMZygF2-14">
          <mxGeometry width="50" height="50" relative="1" as="geometry">
            <mxPoint x="215" y="450" as="sourcePoint" />
            <mxPoint x="215" y="470.71067811865476" as="targetPoint" />
          </mxGeometry>
        </mxCell>
        <mxCell id="Y_k0PhM8CStEdoMZygF2-16" value="Maior do que 18 anos?" style="rhombus;whiteSpace=wrap;html=1;labelBackgroundColor=#114B5F;fillColor=#F45B69;strokeColor=#028090;fontColor=#E4FDE1;" vertex="1" parent="WIyWlLk6GJQsqaUBKTNV-1">
          <mxGeometry x="141.25" y="470" width="147.5" height="140" as="geometry" />
        </mxCell>
        <mxCell id="Y_k0PhM8CStEdoMZygF2-17" value="" style="endArrow=classic;html=1;rounded=0;labelBackgroundColor=#114B5F;strokeColor=#028090;fontColor=#E4FDE1;" edge="1" parent="WIyWlLk6GJQsqaUBKTNV-1" source="Y_k0PhM8CStEdoMZygF2-16">
          <mxGeometry width="50" height="50" relative="1" as="geometry">
            <mxPoint x="215" y="640" as="sourcePoint" />
            <mxPoint x="215" y="660.7106781186548" as="targetPoint" />
          </mxGeometry>
        </mxCell>
        <mxCell id="Y_k0PhM8CStEdoMZygF2-18" value="" style="endArrow=classic;html=1;rounded=0;labelBackgroundColor=#114B5F;strokeColor=#028090;fontColor=#E4FDE1;" edge="1" parent="WIyWlLk6GJQsqaUBKTNV-1" source="Y_k0PhM8CStEdoMZygF2-16">
          <mxGeometry width="50" height="50" relative="1" as="geometry">
            <mxPoint x="277.5" y="580" as="sourcePoint" />
            <mxPoint x="348" y="540" as="targetPoint" />
          </mxGeometry>
        </mxCell>
        <mxCell id="Y_k0PhM8CStEdoMZygF2-19" value="Não" style="text;html=1;align=center;verticalAlign=middle;resizable=0;points=[];autosize=1;strokeColor=none;fillColor=none;fontColor=#E4FDE1;" vertex="1" parent="WIyWlLk6GJQsqaUBKTNV-1">
          <mxGeometry x="296" y="510" width="40" height="20" as="geometry" />
        </mxCell>
        <mxCell id="Y_k0PhM8CStEdoMZygF2-20" value="Sim" style="text;html=1;align=center;verticalAlign=middle;resizable=0;points=[];autosize=1;strokeColor=none;fillColor=none;fontColor=#E4FDE1;" vertex="1" parent="WIyWlLk6GJQsqaUBKTNV-1">
          <mxGeometry x="170" y="620" width="40" height="20" as="geometry" />
        </mxCell>
        <mxCell id="Y_k0PhM8CStEdoMZygF2-21" value="Não é possível prosseguir com o cadastro, você não é maior de idade." style="shape=display;whiteSpace=wrap;html=1;labelBackgroundColor=#114B5F;fillColor=#F45B69;strokeColor=#028090;fontColor=#E4FDE1;" vertex="1" parent="WIyWlLk6GJQsqaUBKTNV-1">
          <mxGeometry x="354" y="487.5" width="200" height="105" as="geometry" />
        </mxCell>
        <mxCell id="Y_k0PhM8CStEdoMZygF2-39" value="" style="edgeStyle=orthogonalEdgeStyle;rounded=0;orthogonalLoop=1;jettySize=auto;html=1;labelBackgroundColor=#114B5F;strokeColor=#028090;fontColor=#E4FDE1;" edge="1" parent="WIyWlLk6GJQsqaUBKTNV-1" source="Y_k0PhM8CStEdoMZygF2-22">
          <mxGeometry relative="1" as="geometry">
            <mxPoint x="215" y="770" as="targetPoint" />
            <Array as="points">
              <mxPoint x="215" y="760" />
              <mxPoint x="215" y="760" />
            </Array>
          </mxGeometry>
        </mxCell>
        <mxCell id="Y_k0PhM8CStEdoMZygF2-22" value="Prosseguir com o cadastro." style="shape=display;whiteSpace=wrap;html=1;labelBackgroundColor=#114B5F;fillColor=#F45B69;strokeColor=#028090;fontColor=#E4FDE1;" vertex="1" parent="WIyWlLk6GJQsqaUBKTNV-1">
          <mxGeometry x="152.5" y="660" width="125" height="80" as="geometry" />
        </mxCell>
        <mxCell id="Y_k0PhM8CStEdoMZygF2-42" value="" style="edgeStyle=orthogonalEdgeStyle;rounded=0;orthogonalLoop=1;jettySize=auto;html=1;labelBackgroundColor=#114B5F;strokeColor=#028090;fontColor=#E4FDE1;" edge="1" parent="WIyWlLk6GJQsqaUBKTNV-1" source="Y_k0PhM8CStEdoMZygF2-27" target="Y_k0PhM8CStEdoMZygF2-34">
          <mxGeometry relative="1" as="geometry" />
        </mxCell>
        <mxCell id="Y_k0PhM8CStEdoMZygF2-27" value="Quantidade de participantes inferior a 100?" style="rhombus;whiteSpace=wrap;html=1;labelBackgroundColor=#114B5F;fillColor=#F45B69;strokeColor=#028090;fontColor=#E4FDE1;" vertex="1" parent="WIyWlLk6GJQsqaUBKTNV-1">
          <mxGeometry x="143.75" y="880" width="142.5" height="150" as="geometry" />
        </mxCell>
        <mxCell id="Y_k0PhM8CStEdoMZygF2-30" value="" style="endArrow=classic;html=1;rounded=0;entryX=0;entryY=0.5;entryDx=0;entryDy=0;labelBackgroundColor=#114B5F;strokeColor=#028090;fontColor=#E4FDE1;" edge="1" parent="WIyWlLk6GJQsqaUBKTNV-1" source="Y_k0PhM8CStEdoMZygF2-27" target="Y_k0PhM8CStEdoMZygF2-35">
          <mxGeometry width="50" height="50" relative="1" as="geometry">
            <mxPoint x="290" y="915" as="sourcePoint" />
            <mxPoint x="360.71067811865476" y="865" as="targetPoint" />
            <Array as="points">
              <mxPoint x="330" y="955" />
            </Array>
          </mxGeometry>
        </mxCell>
        <mxCell id="Y_k0PhM8CStEdoMZygF2-32" value="Sim" style="text;html=1;align=center;verticalAlign=middle;resizable=0;points=[];autosize=1;strokeColor=none;fillColor=none;fontColor=#E4FDE1;" vertex="1" parent="WIyWlLk6GJQsqaUBKTNV-1">
          <mxGeometry x="296" y="930" width="40" height="20" as="geometry" />
        </mxCell>
        <mxCell id="Y_k0PhM8CStEdoMZygF2-33" value="Não" style="text;html=1;align=center;verticalAlign=middle;resizable=0;points=[];autosize=1;strokeColor=none;fillColor=none;fontColor=#E4FDE1;" vertex="1" parent="WIyWlLk6GJQsqaUBKTNV-1">
          <mxGeometry x="170" y="1040" width="40" height="20" as="geometry" />
        </mxCell>
        <mxCell id="Y_k0PhM8CStEdoMZygF2-34" value="Cadastro inválido, a lista já atingiu seu limite de participantes." style="shape=display;whiteSpace=wrap;html=1;labelBackgroundColor=#114B5F;fillColor=#F45B69;strokeColor=#028090;fontColor=#E4FDE1;" vertex="1" parent="WIyWlLk6GJQsqaUBKTNV-1">
          <mxGeometry x="133.75" y="1079" width="162.5" height="90" as="geometry" />
        </mxCell>
        <mxCell id="Y_k0PhM8CStEdoMZygF2-35" value="Adicionar o cadastro na lista de participantes" style="rounded=0;whiteSpace=wrap;html=1;labelBackgroundColor=#114B5F;fillColor=#F45B69;strokeColor=#028090;fontColor=#E4FDE1;" vertex="1" parent="WIyWlLk6GJQsqaUBKTNV-1">
          <mxGeometry x="360" y="917.5" width="140" height="75" as="geometry" />
        </mxCell>
        <mxCell id="Y_k0PhM8CStEdoMZygF2-36" value="" style="endArrow=classic;html=1;rounded=0;entryX=0;entryY=0.5;entryDx=0;entryDy=0;entryPerimeter=0;labelBackgroundColor=#114B5F;strokeColor=#028090;fontColor=#E4FDE1;" edge="1" parent="WIyWlLk6GJQsqaUBKTNV-1" source="Y_k0PhM8CStEdoMZygF2-35" target="Y_k0PhM8CStEdoMZygF2-37">
          <mxGeometry width="50" height="50" relative="1" as="geometry">
            <mxPoint x="500" y="915" as="sourcePoint" />
            <mxPoint x="570.7106781186548" y="865" as="targetPoint" />
          </mxGeometry>
        </mxCell>
        <mxCell id="Y_k0PhM8CStEdoMZygF2-37" value="Cadastro concluído com sucesso, seu nome foi adicionado na lista." style="shape=display;whiteSpace=wrap;html=1;labelBackgroundColor=#114B5F;fillColor=#F45B69;strokeColor=#028090;fontColor=#E4FDE1;" vertex="1" parent="WIyWlLk6GJQsqaUBKTNV-1">
          <mxGeometry x="570" y="906.25" width="180" height="97.5" as="geometry" />
        </mxCell>
        <mxCell id="Y_k0PhM8CStEdoMZygF2-40" value="" style="endArrow=classic;html=1;rounded=0;entryX=0.5;entryY=0;entryDx=0;entryDy=0;labelBackgroundColor=#114B5F;strokeColor=#028090;fontColor=#E4FDE1;" edge="1" parent="WIyWlLk6GJQsqaUBKTNV-1" target="Y_k0PhM8CStEdoMZygF2-27">
          <mxGeometry width="50" height="50" relative="1" as="geometry">
            <mxPoint x="215" y="830" as="sourcePoint" />
            <mxPoint x="215" y="900.7106781186548" as="targetPoint" />
          </mxGeometry>
        </mxCell>
        <mxCell id="Y_k0PhM8CStEdoMZygF2-43" value="&lt;span&gt;Listar participantes e palestrantes&lt;/span&gt;" style="shape=display;whiteSpace=wrap;html=1;labelBackgroundColor=#114B5F;fillColor=#F45B69;strokeColor=#028090;fontColor=#E4FDE1;" vertex="1" parent="WIyWlLk6GJQsqaUBKTNV-1">
          <mxGeometry x="147.5" y="770" width="135" height="60" as="geometry" />
        </mxCell>
      </root>
    </mxGraphModel>
  </diagram>
</mxfile>
